<?xml version="1.0" encoding="UTF-8" standalone="no"?>
<svg
   viewBox="0 0 50 55"
   version="1.1"
   xml:space="preserve"
   x="0px"
   y="0px"
   id="svg4"
   sodipodi:docname="aeroportos.svg"
   width="50"
   height="55"
   inkscape:version="1.3 (0e150ed6c4, 2023-07-21)"
   xmlns:inkscape="http://www.inkscape.org/namespaces/inkscape"
   xmlns:sodipodi="http://sodipodi.sourceforge.net/DTD/sodipodi-0.dtd"
   xmlns="http://www.w3.org/2000/svg"
   xmlns:svg="http://www.w3.org/2000/svg"><defs
     id="defs4" /><sodipodi:namedview
     id="namedview4"
     pagecolor="#ffffff"
     bordercolor="#000000"
     borderopacity="0.25"
     inkscape:showpageshadow="2"
     inkscape:pageopacity="0.0"
     inkscape:pagecheckerboard="0"
     inkscape:deskcolor="#d1d1d1"
     inkscape:zoom="6.568"
     inkscape:cx="27.862363"
     inkscape:cy="27.48173"
     inkscape:window-width="1920"
     inkscape:window-height="1017"
     inkscape:window-x="-8"
     inkscape:window-y="-8"
     inkscape:window-maximized="1"
     inkscape:current-layer="svg4" /><path
     id="path4"
     style="fill:#dbf0a2;stroke:#000000;stroke-width:2.08749;stroke-linecap:round;stroke-linejoin:round;paint-order:stroke fill markers;fill-opacity:1"
     d="M 25 1.0429688 A 23.956253 23.956255 0 0 0 1.0429688 25 A 23.956253 23.956255 0 0 0 20.310547 48.435547 L 21.605469 50.025391 L 24.990234 54.183594 L 28.375 50.025391 L 29.664062 48.439453 A 23.956253 23.956255 0 0 0 48.957031 25 A 23.956253 23.956255 0 0 0 25 1.0429688 z " /><g
     id="g3"
     transform="matrix(0.43265506,0,0,0.44778428,2.0267969,4.0970337)"><g
       id="g2"><g
         id="g1"><path
           d="m 70.181706,88.698655 c -0.130394,-0.252163 -1.252421,-2.591956 -2.493382,-5.199535 -3.598742,-7.561871 -3.960316,-8.301989 -4.05578,-8.301989 -0.04965,0 -0.330201,0.148253 -0.623376,0.329447 l -0.533053,0.329444 -0.280358,-0.34623 c -0.377569,-0.466279 -0.365038,-0.51675 0.279269,-1.124611 l 0.559628,-0.527979 -0.585817,-1.314715 c -0.322194,-0.723095 -0.666461,-1.345663 -0.765024,-1.383485 -0.09857,-0.03786 -0.430287,0.07937 -0.737161,0.260428 -0.535911,0.316198 -0.569684,0.318569 -0.855305,0.06009 -0.429691,-0.388869 -0.372409,-0.602134 0.308758,-1.149534 0.333362,-0.267902 0.606115,-0.58202 0.606115,-0.698051 0,-0.307378 -1.198031,-2.768894 -1.347634,-2.768894 -0.06973,0 -0.300162,0.136373 -0.512064,0.303054 -0.512888,0.403444 -0.809104,0.382019 -1.112119,-0.08044 -0.24753,-0.377775 -0.241522,-0.392236 0.402568,-0.969399 l 0.653844,-0.585901 -0.494081,-1.114122 C 58.32499,63.803466 58.003323,63.147176 57.88192,62.95781 l -0.220727,-0.344301 -0.655992,0.451331 -0.655985,0.451331 -0.361138,-0.386981 -0.361138,-0.38698 0.740843,-0.672915 0.740838,-0.672916 -0.835134,-1.774656 c -1.905457,-4.049108 -3.062081,-6.396306 -3.151899,-6.396306 -0.110853,0 -1.235039,0.979638 -4.874495,4.247724 -6.791979,6.098927 -7.667426,6.820049 -9.775358,8.052141 l -1.584843,0.926346 0.09006,1.531575 c 0.04954,0.842368 0.158629,3.236281 0.242422,5.319805 0.0838,2.083524 0.219416,5.424736 0.301382,7.424919 0.08196,2.000183 0.149236,3.720855 0.149505,3.823725 4.58e-4,0.17475 -1.174309,1.349426 -2.45099,2.450801 l -0.557372,0.48083 -0.520409,-0.953215 c -0.510958,-0.935897 -1.478817,-2.795795 -4.123274,-7.923553 -2.153794,-4.176331 -3.225119,-6.194067 -3.449638,-6.497046 -0.176434,-0.238092 -0.264957,-0.255336 -0.544044,-0.105974 -0.386028,0.206593 -3.05952,0.812231 -3.156663,0.715089 -0.100442,-0.100442 0.666741,-2.293736 1.104462,-3.15754 0.214553,-0.423403 0.329146,-0.811584 0.254648,-0.86263 -0.0745,-0.05103 -1.017982,-0.778367 -2.096632,-1.616273 -1.663333,-1.292085 -5.780387,-4.424679 -9.234578,-7.026426 -1.95057,-1.469196 -3.7124666,-2.910129 -3.7124666,-3.036174 0,-0.227285 2.7749146,-2.733425 3.0265736,-2.733425 0.131397,0 1.055456,0.19864 2.053451,0.441422 1.75795,0.427655 11.309757,2.661958 14.694513,3.437255 0.916751,0.209987 1.772531,0.412189 1.901734,0.449336 0.155307,0.04465 0.460423,-0.253602 0.90036,-0.880121 0.950506,-1.353632 1.70443,-2.118393 7.804933,-7.917126 3.000274,-2.851859 5.578577,-5.32431 5.729554,-5.494335 0.311696,-0.351004 0.446666,-0.250477 -4.727979,-3.521329 l -2.46166,-1.555993 -0.489402,0.474348 c -0.581207,0.563324 -0.653625,0.572872 -1.107949,0.14606 l -0.349449,-0.328289 0.392866,-0.515073 c 0.216077,-0.283291 0.368933,-0.538653 0.339685,-0.567471 -0.236231,-0.232731 -4.565714,-2.806749 -4.720935,-2.806749 -0.110138,0 -0.393703,0.201924 -0.630145,0.448721 l -0.429904,0.44872 -0.431856,-0.307509 c -0.527951,-0.375934 -0.531387,-0.448399 -0.04845,-1.022331 L 31.01265,34.76 28.576173,33.302307 c -1.340063,-0.801731 -2.531977,-1.49434 -2.6487,-1.539132 -0.116724,-0.04479 -0.483131,0.136271 -0.814242,0.402358 -0.599247,0.481567 -0.603795,0.4825 -0.987818,0.202691 -0.212189,-0.154607 -0.387941,-0.318997 -0.390558,-0.365311 -0.0029,-0.04631 0.165873,-0.315492 0.374425,-0.598172 0.208557,-0.28268 0.327886,-0.558915 0.265181,-0.613855 -0.06271,-0.05494 -3.146115,-1.92475 -6.852016,-4.155133 -3.705897,-2.230383 -6.898597,-4.160471 -7.094887,-4.289084 l -0.356888,-0.233844 1.713136,-1.718009 c 0.942226,-0.944905 1.819718,-1.71801 1.94998,-1.71801 0.210928,0 3.242575,0.667419 7.874901,1.733662 2.464729,0.567319 4.485998,1.029583 10.303967,2.356517 2.958604,0.674784 8.277274,1.90259 11.819261,2.728458 11.280326,2.630175 17.54196,3.974927 17.809357,3.82475 0.210275,-0.118094 2.54055,-2.322578 9.130162,-8.637305 4.527606,-4.338737 5.92302,-5.551291 7.768709,-6.750674 2.859807,-1.858388 6.39609,-2.984278 9.368673,-2.982819 2.042987,10e-4 2.510225,0.6054 2.168295,2.804799 -0.390048,2.508886 -1.710197,5.560938 -3.378742,7.811301 -1.185156,1.598422 -2.69781,3.099538 -9.454315,9.382184 -3.166955,2.944847 -6.28547,5.86149 -6.930036,6.481429 l -1.171932,1.127162 0.451757,4.038816 c 0.248464,2.221349 0.55346,4.891167 0.677766,5.932928 0.1243,1.041762 0.465417,3.90566 0.758036,6.364218 1.01402,8.519714 1.593331,13.272945 1.976072,16.2136 0.904386,6.948427 1.737453,13.737216 1.729051,14.090273 -0.0069,0.29239 -0.464724,0.785137 -1.972584,2.123332 -1.079938,0.958415 -2.026493,1.763975 -2.103459,1.790125 -0.07696,0.02617 -0.246619,-0.158766 -0.377019,-0.410924 z M 86.138284,19.068097 c 0.505747,-1.075931 0.542538,-1.620792 0.168205,-2.490951 -0.597507,-1.388949 -1.955329,-2.324367 -3.404308,-2.345267 -0.704322,-0.01016 -2.348699,0.449612 -2.348699,0.656703 0,0.05042 0.345286,0.215825 0.767309,0.367581 1.829699,0.657952 3.600809,2.6345 3.870188,4.319116 0.09479,0.592768 0.115298,0.613652 0.373326,0.380139 0.15017,-0.135898 0.408455,-0.535193 0.573979,-0.887321 z M 73.146712,67.082215 c -0.09315,-0.626296 -0.27711,-2.10806 -0.408804,-3.292825 l -0.239444,-2.154119 1.306748,-1.250114 c 1.090115,-1.04287 1.388634,-1.250114 1.80068,-1.250114 1.277431,0 3.432319,2.226523 3.432319,3.546416 0,0.351157 -1.241024,1.565178 -5.084759,4.97414 l -0.637384,0.565286 z M 71.400732,52.50565 c -0.04822,-0.312529 -0.191874,-1.591054 -0.319239,-2.841168 -0.127359,-1.250114 -0.267569,-2.433903 -0.31157,-2.630643 -0.0665,-0.297348 0.185969,-0.623357 1.496194,-1.931994 1.298294,-1.29672 1.656208,-1.574287 2.030003,-1.574287 1.099514,0 3.37833,2.477772 3.37833,3.673285 0,0.229798 -0.302029,0.642817 -0.871295,1.191478 -1.145954,1.10448 -5.152505,4.681563 -5.243634,4.681563 -0.03912,0 -0.110573,-0.255705 -0.158789,-0.568234 z M 53.960147,27.078488 C 53.543439,26.97544 52.159788,26.666919 50.885358,26.392883 l -2.317142,-0.498245 2.906007,-2.813389 c 1.598302,-1.547363 3.099822,-2.938488 3.336711,-3.091388 0.566717,-0.365785 1.21193,-0.163466 2.171027,0.680764 1.204748,1.060462 1.902249,2.292475 1.685142,2.976512 -0.08423,0.265381 -2.923045,2.921048 -3.652818,3.417151 -0.241677,0.164294 -0.436569,0.166919 -1.054138,0.0142 z M 38.579954,23.537881 C 37.954895,23.386401 36.7957,23.11551 36.00396,22.935899 c -0.79174,-0.17961 -1.526616,-0.381253 -1.633066,-0.448095 -0.191467,-0.120226 0.108145,-0.431238 4.554409,-4.727779 0.815004,-0.787555 1.614813,-1.492856 1.777365,-1.567336 0.199113,-0.09123 0.513868,-0.05204 0.964675,0.120125 1.215928,0.464366 2.965419,2.682065 2.760361,3.499093 -0.113929,0.45393 -3.948576,3.932467 -4.377803,3.971255 -0.183415,0.01657 -0.844887,-0.0938 -1.469947,-0.245281 z"
           fill="#000000"
           stroke-width="1"
           id="path1" /></g></g></g></svg>
