<?xml version="1.0" encoding="UTF-8" standalone="no"?>
<svg
   version="1.1"
   x="0px"
   y="0px"
   viewBox="0 0 30 30"
   enable-background="new 0 0 100 100"
   xml:space="preserve"
   id="svg3"
   sodipodi:docname="aeroportos.svg"
   width="30"
   height="30"
   inkscape:version="1.3 (0e150ed6c4, 2023-07-21)"
   xmlns:inkscape="http://www.inkscape.org/namespaces/inkscape"
   xmlns:sodipodi="http://sodipodi.sourceforge.net/DTD/sodipodi-0.dtd"
   xmlns="http://www.w3.org/2000/svg"
   xmlns:svg="http://www.w3.org/2000/svg"><defs
     id="defs3" /><sodipodi:namedview
     id="namedview3"
     pagecolor="#ffffff"
     bordercolor="#000000"
     borderopacity="0.25"
     inkscape:showpageshadow="2"
     inkscape:pageopacity="0.0"
     inkscape:pagecheckerboard="0"
     inkscape:deskcolor="#d1d1d1"
     inkscape:zoom="6.568"
     inkscape:cx="49.939099"
     inkscape:cy="62.5"
     inkscape:window-width="1920"
     inkscape:window-height="1017"
     inkscape:window-x="-8"
     inkscape:window-y="-8"
     inkscape:window-maximized="1"
     inkscape:current-layer="svg3" /><g
     display="none"
     id="g2"><path
       display="inline"
       fill="#000000"
       stroke="#ec008c"
       stroke-width="0.5"
       stroke-miterlimit="10"
       d="M 74.907,46.97 49.995,95.154 24.869,46.558 24.59,45.975 C 22.73,42.203 21.685,37.958 21.685,33.468 21.685,17.831 34.362,5.154 50,5.154 c 15.638,0 28.315,12.677 28.315,28.315 0,4.773 -1.181,9.271 -3.267,13.216 z"
       id="path1" /><rect
       x="36.5"
       y="19.973"
       display="inline"
       fill="#000000"
       stroke="#ec008c"
       stroke-width="0.5"
       stroke-miterlimit="10"
       width="27"
       height="27"
       id="rect1" /><rect
       x="38.359001"
       y="21.832001"
       display="inline"
       fill="#000000"
       stroke="#ec008c"
       stroke-width="0.5"
       stroke-miterlimit="10"
       width="23.281"
       height="23.281"
       id="rect2" /></g><path
     d="M 15.000171,0.5 C 9.47721,0.5 5,4.5848107 5,9.6237223 5,11.0705 5.3690699,12.43833 6.0259751,13.653753 L 6.1245099,13.841607 14.998072,29.5 l 8.79864,-15.525953 0.04936,-0.09213 C 24.5829,12.610723 25,11.16137 25,9.6234 25.000341,4.5848107 20.523127,0.5 15.000171,0.5 Z m 4.796844,11.010977 -4.197128,-1.458699 v 1.367515 c 0,0.127277 -0.03432,0.252614 -0.09999,0.364754 l 1.498898,0.91156 V 13.4253 L 15.000171,12.696107 13.001548,13.4253 v -0.729193 l 1.498893,-0.91156 C 14.434829,11.672407 14.4005,11.54707 14.4005,11.419793 v -1.367515 l -4.197159,1.458699 v -0.91157 l 4.196772,-3.0085847 v -2.010667 c 0,-0.3705553 0.145536,-0.728866 0.410047,-1.0098446 0.04716,-0.05027 0.11654,-0.079588 0.189669,-0.079588 0.07302,0 0.141971,0.029 0.189278,0.079588 0.264561,0.2809786 0.410047,0.6392893 0.410047,1.0098446 v 2.010667 L 19.7963,10.599407 v 0.91157 z"
     id="path2"
     style="stroke-width:0.337349" /><rect
     style="fill:#000000;fill-opacity:0;stroke-width:3.84473;stroke-linecap:round;stroke-linejoin:round;paint-order:stroke fill markers"
     id="rect3"
     width="30"
     height="30"
     x="0"
     y="0" /></svg>
