<?xml version="1.0" encoding="UTF-8" standalone="no"?>
<svg
   data-name="Layer 1"
   viewBox="0 0 50 55"
   x="0px"
   y="0px"
   version="1.1"
   id="svg3"
   sodipodi:docname="aerodromos.svg"
   width="50"
   height="55"
   inkscape:version="1.3 (0e150ed6c4, 2023-07-21)"
   xmlns:inkscape="http://www.inkscape.org/namespaces/inkscape"
   xmlns:sodipodi="http://sodipodi.sourceforge.net/DTD/sodipodi-0.dtd"
   xmlns="http://www.w3.org/2000/svg"
   xmlns:svg="http://www.w3.org/2000/svg"
   xmlns:rdf="http://www.w3.org/1999/02/22-rdf-syntax-ns#"
   xmlns:cc="http://creativecommons.org/ns#"
   xmlns:dc="http://purl.org/dc/elements/1.1/">
  <defs
     id="defs3" />
  <sodipodi:namedview
     id="namedview3"
     pagecolor="#ffffff"
     bordercolor="#000000"
     borderopacity="0.25"
     inkscape:showpageshadow="2"
     inkscape:pageopacity="0.0"
     inkscape:pagecheckerboard="0"
     inkscape:deskcolor="#d1d1d1"
     inkscape:zoom="6.1923698"
     inkscape:cx="40.856733"
     inkscape:cy="21.881768"
     inkscape:window-width="1920"
     inkscape:window-height="1017"
     inkscape:window-x="-8"
     inkscape:window-y="-8"
     inkscape:window-maximized="1"
     inkscape:current-layer="svg3" />
  <title
     id="title1">Artboard 27@5x</title>
  <path
     id="path3"
     style="fill:#f4f3b1;fill-opacity:1;stroke:#000000;stroke-width:3.86963;stroke-linecap:round;stroke-linejoin:round;stroke-dasharray:none;paint-order:stroke fill markers"
     d="M 25,1.9348151 A 23.064264,22.969187 0 0 0 1.9348151,24.904917 23.064264,22.969187 0 0 0 20.281691,47.330089 l 1.406782,1.710217 3.309633,4.027595 3.311525,-4.027595 1.404891,-1.710217 A 23.064264,22.969187 0 0 0 48.065183,24.904917 23.064264,22.969187 0 0 0 25,1.9348151 Z" />
  <path
     d="M 46.60331,23.826252 A 1.5873985,1.7099923 0 0 0 45.269258,23.25869 l -15.133546,1.659684 v -1.221405 a 4.8755698,5.2521112 0 0 0 -0.05359,-0.75445 l 5.876084,-1.250143 a 0.66697223,0.7184831 0 0 0 0.526864,-0.840623 0.66697223,0.7184831 0 0 0 -0.786991,-0.567602 l -5.962711,1.264547 a 5.2223938,5.6257234 0 0 0 -1.113822,-1.767465 5.0689927,5.4604746 0 0 0 -2.967984,-1.573475 v -5.489232 a 0.66701357,0.71852695 0 0 0 -1.334026,0 v 5.489232 a 5.1556987,5.5538745 0 0 0 -4.075172,3.34094 l -5.962636,-1.264547 a 0.66697223,0.7184831 0 0 0 -0.787067,0.567602 0.66697223,0.7184831 0 0 0 0.526931,0.840623 l 5.875971,1.250143 a 4.8022033,5.1730789 0 0 0 -0.05359,0.75445 v 1.221405 L 4.7306389,23.25869 A 1.5873985,1.7099923 0 0 0 3.396695,23.826252 1.5873985,1.7099923 0 0 0 4.2837727,26.635539 L 14.23503,28.66887 v 3.168504 H 13.3213 v -0.402362 a 0.66697276,0.71848334 0 0 0 -1.333931,0 v 2.241646 a 0.66697276,0.71848334 0 0 0 1.333931,0 v -0.4023 h 3.174795 v 0.4023 a 0.66697223,0.7184831 0 1 0 1.333892,0 v -2.241646 a 0.66697223,0.7184831 0 0 0 -1.333892,0 v 0.402362 h -0.927094 v -2.873967 l 5.275812,1.077738 a 2.6678894,2.8739304 0 0 0 1.680767,0.660993 h 1.794087 v 3.76488 h -0.920398 v -0.402384 a 0.66697223,0.7184831 0 0 0 -1.333897,0 v 2.220156 a 0.66697223,0.7184831 0 0 0 1.333897,0 v -0.402386 h 3.17483 v 0.402386 a 0.66697223,0.7184831 0 0 0 1.33393,0 v -2.241681 a 0.66697223,0.7184831 0 0 0 -1.33393,0 v 0.402336 h -0.920481 v -3.764821 h 1.8009 a 2.6678894,2.8739304 0 0 0 1.680759,-0.661003 l 5.275661,-1.077729 v 2.87393 h -0.920412 v -0.402383 a 0.66697223,0.7184831 0 0 0 -1.33389,0 v 2.241674 a 0.66697223,0.7184831 0 0 0 1.33389,0 v -0.402327 h 3.174859 v 0.402327 a 0.66697223,0.7184831 0 1 0 1.3339,0 v -2.220101 a 0.66697223,0.7184831 0 0 0 -1.3339,0 v 0.402362 H 35.744988 V 28.66887 l 9.971228,-2.033331 a 1.5873985,1.7099923 0 0 0 0.887088,-2.809287 z M 4.3305346,25.040487 a 0.23343984,0.25146891 0 0 1 0.053408,-0.265794 0.24011018,0.25865375 0 0 1 0.2067611,-0.08623 L 19.844299,26.3625 v 1.43696 a 2.8413055,3.0607375 0 0 0 0.05359,0.574801 L 4.5573369,25.227313 A 0.24011018,0.25865375 0 0 1 4.3305676,25.040487 Z m 18.1950514,4.203167 a 1.3339446,1.4369682 0 0 1 -1.334007,-1.436983 v -4.095362 a 3.8150835,4.1097222 0 0 1 7.623458,0 v 4.095362 a 1.3339446,1.4369682 0 0 1 -1.333889,1.436983 z m 23.130542,-4.203167 a 0.24011018,0.25865375 0 0 1 -0.193361,0.179653 l -15.380461,3.146963 a 2.8413055,3.0607375 0 0 0 0.05359,-0.574801 V 26.355343 L 45.396122,24.68125 a 0.24678043,0.26583859 0 0 1 0.206745,0.08624 0.25344993,0.2730234 0 0 1 0.05359,0.273023 z"
     id="path1"
     style="stroke-width:0.69641045;stroke-dasharray:none;stroke:#000000;stroke-opacity:1" />
  <path
     d="m 26.241227,22.331822 a 1.771115,1.8249449 0 0 1 -2.510244,0 0.70017776,0.72145867 0 0 0 -0.990247,1.020248 3.1796349,3.2762821 0 0 0 4.490558,0 0.70014266,0.72142296 0 0 0 -0.990067,-1.020248 z"
     id="path2"
     style="stroke-width:0.71206192;stroke-dasharray:none;stroke:#000000;stroke-opacity:1" />
  <metadata
     id="metadata3">
    <rdf:RDF>
      <cc:Work
         rdf:about="">
        <dc:title>Artboard 27@5x</dc:title>
      </cc:Work>
    </rdf:RDF>
  </metadata>
</svg>
