<?xml version="1.0" encoding="UTF-8" standalone="no"?>
<svg
   version="1.1"
   x="0px"
   y="0px"
   viewBox="0 0 30 30"
   enable-background="new 0 0 100 100"
   xml:space="preserve"
   id="svg3"
   sodipodi:docname="aerodromos.svg"
   width="30"
   height="30"
   inkscape:version="1.3 (0e150ed6c4, 2023-07-21)"
   xmlns:inkscape="http://www.inkscape.org/namespaces/inkscape"
   xmlns:sodipodi="http://sodipodi.sourceforge.net/DTD/sodipodi-0.dtd"
   xmlns="http://www.w3.org/2000/svg"
   xmlns:svg="http://www.w3.org/2000/svg"><defs
     id="defs3" /><sodipodi:namedview
     id="namedview3"
     pagecolor="#ffffff"
     bordercolor="#000000"
     borderopacity="0.25"
     inkscape:showpageshadow="2"
     inkscape:pageopacity="0.0"
     inkscape:pagecheckerboard="0"
     inkscape:deskcolor="#d1d1d1"
     inkscape:zoom="6.568"
     inkscape:cx="46.741778"
     inkscape:cy="48.949452"
     inkscape:window-width="1920"
     inkscape:window-height="1017"
     inkscape:window-x="-8"
     inkscape:window-y="-8"
     inkscape:window-maximized="1"
     inkscape:current-layer="g2" /><g
     id="g2"
     transform="matrix(0.36231884,0,0,0.33687426,-3.115944,-1.8437128)"><rect
       style="fill:#000000;fill-opacity:0;stroke-width:3.61877;stroke-linecap:round;stroke-linejoin:round;paint-order:stroke fill markers"
       id="rect3"
       width="30"
       height="30"
       x="0"
       y="0"
       transform="matrix(2.76,0,0,2.9684666,8.6000055,5.4729999)" /><rect
       style="fill:#e99021;fill-opacity:1;stroke:#000000;stroke-width:2.86233609;stroke-linecap:round;stroke-linejoin:round;stroke-dasharray:none;stroke-opacity:1;paint-order:stroke fill markers"
       id="rect4"
       width="67.664062"
       height="66.938789"
       x="16.167969"
       y="6.1409655" /><path
       fill-rule="evenodd"
       clip-rule="evenodd"
       d="m 52.974,36.945 h -6.341 c -0.4,0 -0.752,0.192 -0.98,0.487 -0.045,0.118 -0.104,0.223 -0.18,0.32 -0.051,0.136 -0.083,0.281 -0.083,0.435 0,0.686 0.556,1.242 1.242,1.242 h 6.341 c 0.687,0 1.242,-0.556 1.242,-1.242 10e-4,-0.686 -0.555,-1.242 -1.241,-1.242 z"
       id="path1"
       style="stroke:#000000;stroke-opacity:1;fill:#000000;fill-opacity:0" /><circle
       fill-rule="evenodd"
       clip-rule="evenodd"
       cx="32.113998"
       cy="46.139"
       r="1.859"
       id="circle1"
       style="stroke:#000000;stroke-opacity:1;fill:#000000;fill-opacity:0" /><circle
       fill-rule="evenodd"
       clip-rule="evenodd"
       cx="67.388"
       cy="46.139"
       r="1.859"
       id="circle2"
       style="stroke:#000000;stroke-opacity:1;fill:#000000;fill-opacity:0" /><path
       fill-rule="evenodd"
       clip-rule="evenodd"
       d="M 15.5,5.473 V 74.472 H 50.129 L 84.5,94.527 V 74.472 53 5.473 Z m 62.91,35.758 -8.018,1.786 c 0.821,0.791 1.338,1.895 1.338,3.123 0,2.394 -1.948,4.342 -4.343,4.342 -2.395,0 -4.343,-1.948 -4.343,-4.342 0,-0.548 0.113,-1.068 0.3,-1.553 l -8.799,1.96 c -1.284,0.975 -2.88,1.56 -4.613,1.56 -1.759,0 -3.377,-0.602 -4.672,-1.602 l -9.14,-2.036 c 0.216,0.515 0.336,1.079 0.336,1.671 0,2.394 -1.948,4.342 -4.343,4.342 -2.394,0 -4.342,-1.948 -4.342,-4.342 0,-1.276 0.564,-2.414 1.444,-3.21 l -7.626,-1.698 c -0.628,-0.14 -1.045,-0.737 -0.961,-1.375 0.085,-0.638 0.663,-1.115 1.285,-1.078 l 20.394,0.89 c 0.058,-0.571 0.183,-1.122 0.359,-1.649 l -9.459,-1.198 c -0.68,-0.086 -1.162,-0.708 -1.076,-1.388 0.086,-0.681 0.708,-1.16 1.388,-1.077 l 10.421,1.319 c 1.16,-1.455 2.836,-2.475 4.75,-2.789 V 22.06 c 0,-0.686 0.556,-1.242 1.242,-1.242 0.686,0 1.242,0.556 1.242,1.242 v 10.828 c 1.91,0.313 3.585,1.33 4.744,2.781 l 10.35,-1.311 c 0.676,-0.083 1.301,0.396 1.388,1.077 0.085,0.68 -0.396,1.301 -1.076,1.388 l -9.385,1.188 c 0.179,0.532 0.306,1.088 0.363,1.665 L 78.086,38.78 c 0.625,-0.036 1.201,0.439 1.285,1.078 0.085,0.637 -0.332,1.233 -0.961,1.373 z"
       id="path2"
       style="fill:#000000;fill-opacity:0;stroke:#000000;stroke-opacity:1;stroke-width:1.43116805;stroke-dasharray:none" /></g></svg>
