<?xml version="1.0" encoding="UTF-8" standalone="no"?>
<svg
   data-name="Layer 1"
   viewBox="0 0 50 55"
   x="0px"
   y="0px"
   version="1.1"
   id="svg3"
   sodipodi:docname="aerodromos.svg"
   width="50"
   height="55"
   inkscape:version="1.3 (0e150ed6c4, 2023-07-21)"
   xmlns:inkscape="http://www.inkscape.org/namespaces/inkscape"
   xmlns:sodipodi="http://sodipodi.sourceforge.net/DTD/sodipodi-0.dtd"
   xmlns="http://www.w3.org/2000/svg"
   xmlns:svg="http://www.w3.org/2000/svg"
   xmlns:rdf="http://www.w3.org/1999/02/22-rdf-syntax-ns#"
   xmlns:cc="http://creativecommons.org/ns#"
   xmlns:dc="http://purl.org/dc/elements/1.1/">
  <defs
     id="defs3" />
  <sodipodi:namedview
     id="namedview3"
     pagecolor="#ffffff"
     bordercolor="#000000"
     borderopacity="0.25"
     inkscape:showpageshadow="2"
     inkscape:pageopacity="0.0"
     inkscape:pagecheckerboard="0"
     inkscape:deskcolor="#d1d1d1"
     inkscape:zoom="6.1923698"
     inkscape:cx="40.856733"
     inkscape:cy="21.881768"
     inkscape:window-width="1920"
     inkscape:window-height="1017"
     inkscape:window-x="-8"
     inkscape:window-y="-8"
     inkscape:window-maximized="1"
     inkscape:current-layer="svg3" />
  <title
     id="title1">Artboard 27@5x</title>
  <path
     id="path3"
     style="fill:#f4f3b1;stroke:#000000;stroke-width:2.41596;stroke-linecap:round;stroke-linejoin:round;paint-order:stroke fill markers;fill-opacity:1"
     d="M 25 1.2070312 A 23.792019 23.792021 0 0 0 1.2070312 25 A 23.792019 23.792021 0 0 0 20.132812 48.228516 L 21.583984 50 L 24.998047 54.171875 L 28.414062 50 L 29.863281 48.228516 A 23.792019 23.792021 0 0 0 48.792969 25 A 23.792019 23.792021 0 0 0 25 1.2070312 z " />
  <path
     d="M 47.585281,23.826252 A 1.659553,1.7099923 0 0 0 46.19059,23.25869 l -15.821434,1.659684 v -1.221405 a 5.0971869,5.2521112 0 0 0 -0.05602,-0.75445 l 6.14318,-1.250143 a 0.69728924,0.7184831 0 0 0 0.550811,-0.840623 0.69728924,0.7184831 0 0 0 -0.822761,-0.567602 l -6.233745,1.264547 A 5.459776,5.6257234 0 0 0 28.78617,19.781233 5.2994018,5.4604746 0 0 0 25.683275,18.207758 v -5.489232 a 0.697332,0.7185265 0 0 0 -1.394664,0 v 5.489232 a 5.3900492,5.5538745 0 0 0 -4.260404,3.34094 l -6.233675,-1.264547 a 0.69728924,0.7184831 0 0 0 -0.822843,0.567602 0.69728924,0.7184831 0 0 0 0.550884,0.840623 l 6.143064,1.250143 a 5.0204858,5.1730789 0 0 0 -0.05602,0.75445 v 1.221405 L 3.8093047,23.25869 a 1.659553,1.7099923 0 0 0 -1.3945779,0.567562 1.659553,1.7099923 0 0 0 0.9273995,2.809287 L 13.745714,28.66887 v 3.168504 h -0.95526 v -0.402362 a 0.69728979,0.71848334 0 0 0 -1.394566,0 v 2.241646 a 0.69728979,0.71848334 0 0 0 1.394566,0 v -0.4023 h 3.319102 v 0.4023 a 0.69728924,0.7184831 0 1 0 1.394525,0 v -2.241646 a 0.69728924,0.7184831 0 0 0 -1.394525,0 v 0.402362 h -0.969235 v -2.873967 l 5.51562,1.077738 a 2.7891574,2.8739304 0 0 0 1.757166,0.660993 h 1.875639 v 3.76488 h -0.962235 v -0.402384 a 0.69728924,0.7184831 0 0 0 -1.394531,0 v 2.220156 a 0.69728924,0.7184831 0 0 0 1.394531,0 v -0.402386 h 3.319139 v 0.402386 a 0.69728924,0.7184831 0 0 0 1.394564,0 v -2.241681 a 0.69728924,0.7184831 0 0 0 -1.394564,0 v 0.402336 h -0.96232 v -3.764821 h 1.882757 a 2.7891574,2.8739304 0 0 0 1.757158,-0.661003 l 5.515465,-1.077729 v 2.87393 h -0.962246 v -0.402383 a 0.69728924,0.7184831 0 0 0 -1.394524,0 v 2.241674 a 0.69728924,0.7184831 0 0 0 1.394524,0 v -0.402327 h 3.319168 v 0.402327 a 0.69728924,0.7184831 0 1 0 1.394534,0 v -2.220101 a 0.69728924,0.7184831 0 0 0 -1.394534,0 v 0.402362 H 36.233398 V 28.66887 l 10.424467,-2.033331 a 1.659553,1.7099923 0 0 0 0.92741,-2.809287 z M 3.3910134,25.040487 a 0.24405079,0.25146891 0 0 1 0.055834,-0.265794 0.25102428,0.25865375 0 0 1 0.2161593,-0.08623 L 19.60995,26.3625 v 1.43696 a 2.970456,3.0607375 0 0 0 0.05602,0.574801 L 3.6281251,25.227313 A 0.25102428,0.25865375 0 0 1 3.391048,25.040487 Z M 22.413113,29.243654 A 1.3945786,1.4369682 0 0 1 21.01847,27.806671 v -4.095362 a 3.9884966,4.1097222 0 0 1 7.969983,0 v 4.095362 a 1.3945786,1.4369682 0 0 1 -1.394523,1.436983 z m 24.181936,-4.203167 a 0.25102428,0.25865375 0 0 1 -0.202153,0.179653 l -16.079572,3.146963 a 2.970456,3.0607375 0 0 0 0.05602,-0.574801 v -1.436959 l 15.95388,-1.674093 a 0.25799772,0.26583859 0 0 1 0.216143,0.08624 0.26497039,0.2730234 0 0 1 0.05602,0.273023 z"
     id="path1"
     style="stroke-width:0.707815" />
  <path
     d="m 26.241227,22.331822 a 1.771115,1.8249449 0 0 1 -2.510244,0 0.70017776,0.72145867 0 0 0 -0.990247,1.020248 3.1796349,3.2762821 0 0 0 4.490558,0 0.70014266,0.72142296 0 0 0 -0.990067,-1.020248 z"
     id="path2"
     style="stroke-width:0.707815" />
  <metadata
     id="metadata3">
    <rdf:RDF>
      <cc:Work
         rdf:about="">
        <dc:title>Artboard 27@5x</dc:title>
      </cc:Work>
    </rdf:RDF>
  </metadata>
</svg>
