<?xml version="1.0" encoding="UTF-8" standalone="no"?>
<svg
   viewBox="0 0 50.000001 55"
   version="1.1"
   x="0px"
   y="0px"
   id="svg2"
   sodipodi:docname="portos.svg"
   width="50"
   height="55"
   inkscape:version="1.3 (0e150ed6c4, 2023-07-21)"
   xmlns:inkscape="http://www.inkscape.org/namespaces/inkscape"
   xmlns:sodipodi="http://sodipodi.sourceforge.net/DTD/sodipodi-0.dtd"
   xmlns="http://www.w3.org/2000/svg"
   xmlns:svg="http://www.w3.org/2000/svg">
  <defs
     id="defs2">
    <inkscape:path-effect
       effect="offset"
       id="path-effect2"
       is_visible="true"
       lpeversion="1.2"
       linejoin_type="miter"
       unit="mm"
       offset="0"
       miter_limit="4"
       attempt_force_join="false"
       update_on_knot_move="true" />
  </defs>
  <sodipodi:namedview
     id="namedview2"
     pagecolor="#ffffff"
     bordercolor="#000000"
     borderopacity="0.25"
     inkscape:showpageshadow="2"
     inkscape:pageopacity="0.0"
     inkscape:pagecheckerboard="0"
     inkscape:deskcolor="#d1d1d1"
     inkscape:zoom="4.5711391"
     inkscape:cx="-1.531347"
     inkscape:cy="16.954198"
     inkscape:window-width="2560"
     inkscape:window-height="1017"
     inkscape:window-x="1912"
     inkscape:window-y="-8"
     inkscape:window-maximized="1"
     inkscape:current-layer="svg2" />
  <path
     id="path2"
     style="fill:#b7dadb;fill-opacity:1;stroke:#000000;stroke-width:2;stroke-linecap:round;stroke-linejoin:round;stroke-dasharray:none;paint-order:stroke fill markers"
     d="M 25 0.49414062 A 24.50543 24.50543 0 0 0 0.49414062 25 A 24.50543 24.50543 0 0 0 20.490234 49.033203 L 21.347656 50.044922 L 24.623047 53.904297 L 27.900391 50.044922 L 28.587891 49.234375 A 24.50543 24.50543 0 0 0 49.505859 25 A 24.50543 24.50543 0 0 0 25 0.49414062 z " />
  <g
     transform="matrix(3.7491597,0,0,3.4360377,1.192694,-973.68425)"
     id="g1">
    <path
       d="m 6.3763868,284.82957 a 1.3624833,1.3624833 0 0 0 -0.5849673,2.60501 l -0.1550458,6.65334 a 0.63397322,0.63397322 0 0 1 -0.7095067,0.59997 2.2809441,2.2809441 0 0 1 -1.5911247,-0.95186 0.63397322,0.63397322 0 0 1 0.2532327,-0.94052 4.0823901,4.0823901 0 0 1 -2.3445788,-1.78802 0.05702357,0.05702357 0 0 0 -0.1033462,0.014 3.2185707,3.2185707 0 0 0 0.6542352,2.9905 0.43166712,0.43166712 0 0 1 0.2402946,-0.15658 0.28511801,0.28511801 0 0 1 0.3100387,0.12817 4.4534997,4.4534997 0 0 0 2.8732162,2.02726 2.0190625,2.0190625 0 0 1 1.0774627,0.4408 0.08553543,0.08553543 0 0 0 0.1074738,0 2.0190625,2.0190625 0 0 1 1.0774627,-0.4408 4.4534997,4.4534997 0 0 0 2.8732161,-2.02726 0.28511801,0.28511801 0 0 1 0.310039,-0.12817 0.43166712,0.43166712 0 0 1 0.240321,0.15658 3.2185707,3.2185707 0 0 0 0.654209,-2.9905 0.05702357,0.05702357 0 0 0 -0.103347,-0.014 4.0823901,4.0823901 0 0 1 -2.3445519,1.78802 0.63397322,0.63397322 0 0 1 0.2532063,0.94052 2.2809441,2.2809441 0 0 1 -1.5916275,0.95186 0.63397322,0.63397322 0 0 1 -0.7100359,-0.62941 l -0.1540139,-6.6239 a 1.3624833,1.3624833 0 0 0 -0.5322623,-2.60501 z m -0.043392,0.77825 a 0.58409998,0.58409998 0 0 1 0.6009746,0.58396 0.58409998,0.58409998 0 1 1 -1.1678708,0 0.58409998,0.58409998 0 0 1 0.5668962,-0.58396 z"
       fill="#000000"
       stroke="none"
       id="path1" />
  </g>
</svg>
