<?xml version="1.0" encoding="UTF-8" standalone="no"?>
<svg
   version="1.1"
   x="0px"
   y="0px"
   viewBox="0 0 30 30"
   xml:space="preserve"
   id="svg2"
   sodipodi:docname="portos.svg"
   width="30"
   height="30"
   inkscape:version="1.3 (0e150ed6c4, 2023-07-21)"
   xmlns:inkscape="http://www.inkscape.org/namespaces/inkscape"
   xmlns:sodipodi="http://sodipodi.sourceforge.net/DTD/sodipodi-0.dtd"
   xmlns="http://www.w3.org/2000/svg"
   xmlns:svg="http://www.w3.org/2000/svg"><defs
     id="defs2" /><sodipodi:namedview
     id="namedview2"
     pagecolor="#ffffff"
     bordercolor="#000000"
     borderopacity="0.25"
     inkscape:showpageshadow="2"
     inkscape:pageopacity="0.0"
     inkscape:pagecheckerboard="0"
     inkscape:deskcolor="#d1d1d1"
     inkscape:zoom="6.568"
     inkscape:cx="49.939099"
     inkscape:cy="50.319732"
     inkscape:window-width="1920"
     inkscape:window-height="1017"
     inkscape:window-x="-8"
     inkscape:window-y="-8"
     inkscape:window-maximized="1"
     inkscape:current-layer="svg2" /><g
     id="g1"
     transform="matrix(0.33942559,0,0,0.33482143,-1.971276,-1.7410714)"><circle
       cx="50"
       cy="26.4"
       r="3"
       id="circle1" /><path
       d="m 50,5.2 c -21.2,0 -38.3,17.2 -38.3,38.3 0,16.9 10.9,31.2 26.1,36.3 L 50,94.8 62.2,79.9 C 77.4,74.8 88.3,60.5 88.3,43.6 88.3,22.4 71.2,5.2 50,5.2 Z m 18.4,50 C 64,61 57.3,64.3 50,64.3 42.7,64.3 36,61 31.6,55.2 l -0.7,-0.9 4,-4 c 0.5,-0.5 1.4,-0.5 1.9,0 0.5,0.5 0.5,1.4 0,1.9 l -2.3,2.3 c 3.6,4.2 8.6,6.7 14.1,7.1 V 39 h -5.2 c -0.7,0 -1.3,-0.6 -1.3,-1.3 0,-0.7 0.6,-1.3 1.3,-1.3 h 5.2 V 32 c -2.5,-0.6 -4.4,-2.9 -4.4,-5.6 0,-3.2 2.6,-5.7 5.7,-5.7 3.2,0 5.7,2.6 5.7,5.7 0,2.7 -1.9,5 -4.4,5.6 v 4.4 h 5.2 c 0.7,0 1.3,0.6 1.3,1.3 0,0.7 -0.4,1.3 -1.2,1.3 h -5.2 v 22.5 c 5.5,-0.4 10.5,-2.9 14.1,-7.1 l -2.3,-2.3 c -0.5,-0.5 -0.5,-1.4 0,-1.9 0.5,-0.5 1.4,-0.5 1.9,0 l 4,4 z"
       id="path1" /></g><rect
     style="fill:#000000;stroke:none;stroke-width:3.52941;stroke-linecap:round;stroke-linejoin:round;paint-order:stroke fill markers;fill-opacity:0.00877193"
     id="rect2"
     width="26.470587"
     height="26.470592"
     x="1.7647061"
     y="1.7647061" /></svg>
